HIERARCHY
ROOT hip
{
	OFFSET 0.000000 0.000000 0.000000 
	CHANNELS 6 Xposition Yposition Zposition Xrotation Zrotation Yrotation
	JOINT abdomen
	{
		OFFSET 0.000000 3.402643 0.000000 
		CHANNELS 3 Xrotation Zrotation Yrotation
		JOINT chest
		{
			OFFSET 0.000000 8.438565 -0.680529 
			CHANNELS 3 Xrotation Zrotation Yrotation
			JOINT neck
			{
				OFFSET 0.000000 10.207942 -0.272212 
				CHANNELS 3 Xrotation Zrotation Yrotation
				JOINT head
				{
					OFFSET 0.000000 3.130431 0.000000 
					CHANNELS 3 Xrotation Zrotation Yrotation
					End Site
					{
						OFFSET 0.000000 3.130435 0.000000 
					}
				}
			}
			JOINT lCollar
			{
				OFFSET 3.470700 6.669187 -0.816635 
				CHANNELS 3 Yrotation Zrotation Xrotation
				JOINT lShldr
				{
					OFFSET 3.198488 0.000000 0.000000 
					CHANNELS 3 Zrotation Yrotation Xrotation
					JOINT lForeArm
					{
						OFFSET 10.139888 0.000000 0.000000 
						CHANNELS 3 Yrotation Zrotation Xrotation
						JOINT lHand
						{
							OFFSET 8.370511 0.000000 0.000000 
							CHANNELS 3 Zrotation Yrotation Xrotation
							End Site
							{
								OFFSET 4.083176 0.000000 0.000000 
							}
						}
					}
				}
			}
			JOINT rCollar
			{
				OFFSET -3.470700 6.669187 -0.816635 
				CHANNELS 3 Yrotation Zrotation Xrotation
				JOINT rShldr
				{
					OFFSET -3.198488 0.000000 0.000000 
					CHANNELS 3 Zrotation Yrotation Xrotation
					JOINT rForeArm
					{
						OFFSET -10.139888 0.000000 0.000000 
						CHANNELS 3 Yrotation Zrotation Xrotation
						JOINT rHand
						{
							OFFSET -8.370511 0.000000 0.000000 
							CHANNELS 3 Zrotation Yrotation Xrotation
							End Site
							{
								OFFSET -4.083176 0.000000 0.000000 
							}
						}
					}
				}
			}
		}
	}
	JOINT lThigh
	{
		OFFSET 5.308129 -1.633274 1.361059 
		CHANNELS 3 Xrotation Zrotation Yrotation
		JOINT lShin
		{
			OFFSET -2.041588 -20.007561 0.000000 
			CHANNELS 3 Xrotation Zrotation Yrotation
			JOINT lFoot
			{
				OFFSET 0.000000 -19.190928 -1.224953 
				CHANNELS 3 Xrotation Yrotation Zrotation
				End Site
				{
					OFFSET 0.000000 -2.449906 4.627600 
				}
			}
		}
	}
	JOINT rThigh
	{
		OFFSET -5.308129 -1.633274 1.361059 
		CHANNELS 3 Xrotation Zrotation Yrotation
		JOINT rShin
		{
			OFFSET 2.041588 -20.007561 0.000000 
			CHANNELS 3 Xrotation Zrotation Yrotation
			JOINT rFoot
			{
				OFFSET 0.000000 -19.190928 -1.224953 
				CHANNELS 3 Xrotation Yrotation Zrotation
				End Site
				{
					OFFSET 0.000000 -2.449906 4.627600 
				}
			}
		}
	}
}
MOTION
Frames: 17
Frame Time: 0.016667
1.455557 47.548260 -2.619985 15.119322 -7.412498 -18.303823 6.209263 12.922289 26.865900 0.000000 0.000000 0.000000 -26.191198 -8.201081 12.531196 0.000000 0.000000 0.000000 0.000000 0.000000 0.000000 -79.348953 -11.732710 54.114834 7.752909 3.256293 -14.074167 39.694965 19.888821 -31.829716 0.000000 0.000000 0.000000 65.752930 15.879724 37.389889 -0.270405 1.639309 -9.495880 -60.662907 -10.658843 -14.914418 -55.528748 20.445709 1.510774 66.064568 0.843932 1.724220 19.487499 1.844265 -2.327781 -16.003223 16.749443 21.065613 4.073791 -1.912551 -0.152149 4.946390 -0.137293 -2.080034 
2.284092 47.531467 -2.328879 14.753880 -7.568142 -11.971299 5.080327 11.594578 25.839775 0.000000 0.000000 0.000000 -24.446352 -7.401729 11.759142 0.000000 0.000000 0.000000 0.000000 0.000000 0.000000 -79.155952 -11.399117 53.399467 7.811767 3.161701 -13.982834 38.833996 19.455927 -31.838749 0.000000 0.000000 0.000000 66.611710 15.070712 37.395615 -0.284694 1.456020 -9.758662 -60.624016 -10.199766 -14.567728 -52.198723 18.951571 2.543131 61.781315 0.082902 1.643559 18.363289 2.439797 -1.477998 -17.939045 16.113396 20.262064 7.937827 -2.666969 0.175630 6.471999 -0.125873 -1.696238 
3.554937 48.124897 -2.138532 14.129987 -7.538170 -0.886683 3.202092 9.156221 24.304039 0.000000 0.000000 0.000000 -21.434813 -6.021504 10.487257 0.000000 0.000000 0.000000 0.000000 0.000000 0.000000 -78.839073 -10.871862 52.035202 7.946775 3.070591 -13.714400 37.311462 18.865244 -31.863686 0.000000 0.000000 0.000000 68.145836 13.714000 37.493126 -0.430156 1.130098 -10.284616 -60.613026 -9.462236 -13.958834 -46.455894 16.080231 3.956448 54.378906 -1.488274 1.939533 15.978872 3.206542 -0.006554 -21.381872 14.825977 18.986814 15.029094 -4.003067 0.168572 9.319564 0.279184 -1.145272 
4.825704 48.718296 -1.948197 13.520208 -7.382949 10.192151 1.399586 6.672883 22.869459 0.000000 0.000000 0.000000 -18.464275 -4.587759 9.287254 0.000000 0.000000 0.000000 0.000000 0.000000 0.000000 -78.541252 -10.330723 50.665092 8.083309 2.979420 -13.455735 35.787121 18.268110 -31.879385 0.000000 0.000000 0.000000 69.658356 12.353393 37.543232 -0.572024 0.805171 -10.810859 -60.586960 -8.719827 -13.337049 -40.863960 13.093798 5.064043 46.984810 -3.017501 2.427134 13.554955 3.899049 1.481077 -24.771868 13.491768 17.795073 22.162678 -5.352273 0.029164 12.121626 0.684380 -0.573412 
6.074180 49.944378 -2.093759 12.613239 -7.220198 22.048634 -0.122682 3.789748 21.847462 0.000000 0.000000 0.000000 -15.459352 -2.678100 8.104596 0.000000 0.000000 0.000000 0.000000 0.000000 0.000000 -78.164047 -10.127184 49.037727 8.202020 2.816246 -13.176910 34.085636 17.495708 -31.882759 0.000000 0.000000 0.000000 71.382088 11.163158 37.627514 -0.684209 0.656495 -11.435183 -60.511570 -7.812169 -12.658133 -34.699348 10.104164 6.389983 38.550442 -4.523196 3.176944 11.078322 4.673547 2.984737 -28.384998 12.360122 16.756271 30.111712 -6.969258 0.106468 15.474967 1.394516 0.094320 
7.322561 51.170399 -2.239311 11.771544 -6.872954 33.888702 -1.589235 0.875764 20.910872 0.000000 0.000000 0.000000 -12.490565 -0.717251 7.012267 0.000000 0.000000 0.000000 0.000000 0.000000 0.000000 -77.788780 -9.918856 47.402969 8.320324 2.644754 -12.898760 32.392105 16.722292 -31.847031 0.000000 0.000000 0.000000 73.088837 9.990891 37.678566 -0.799776 0.510244 -12.049873 -60.419903 -6.900684 -11.986573 -28.663340 6.998605 7.345922 30.057562 -5.907218 4.134774 8.591863 5.391005 4.477402 -31.949459 11.168599 15.795542 38.073402 -8.564861 -0.107235 18.845196 2.177210 0.712083 
7.832009 52.234077 -2.312089 10.167202 -6.733133 43.131771 -2.477651 -0.977879 20.637791 0.000000 0.000000 0.000000 -10.452461 1.388079 6.290994 0.000000 0.000000 0.000000 0.000000 0.000000 0.000000 -77.079948 -10.038057 45.918476 8.378011 2.566570 -12.710841 31.092760 16.205496 -31.846931 0.000000 0.000000 0.000000 74.573380 9.367208 38.659058 -0.824627 0.792802 -12.489664 -60.394112 -6.234111 -11.440878 -23.389692 5.435917 8.672044 22.760290 -6.826616 4.831524 6.512630 5.937338 5.511466 -34.959785 11.122876 14.907528 45.275887 -9.697115 -0.599765 21.187487 3.071858 2.394280 
8.341400 53.297718 -2.384820 8.608678 -6.341214 52.355961 -3.355476 -2.828872 20.386982 0.000000 0.000000 0.000000 -8.443681 3.508452 5.626190 0.000000 0.000000 0.000000 0.000000 0.000000 0.000000 -76.373520 -10.125979 44.435966 8.436719 2.487353 -12.533093 29.789371 15.681651 -31.824409 0.000000 0.000000 0.000000 76.042458 8.718348 39.625019 -0.845369 1.075610 -12.920073 -60.354057 -5.575211 -10.900957 -18.183443 3.779473 9.849206 15.430616 -7.673859 5.633447 4.449883 6.442380 6.521892 -37.961727 11.020127 14.030192 52.492306 -10.755317 -1.254911 23.500113 4.027376 4.064758 
8.145458 53.823967 -1.864176 6.249457 -6.974544 57.715698 -4.321711 -2.735770 20.473343 0.000000 0.000000 0.000000 -7.474852 5.182576 5.344551 0.000000 0.000000 0.000000 0.000000 0.000000 0.000000 -75.400604 -9.997178 43.772331 8.451743 2.244498 -12.238008 29.489433 15.646957 -31.826323 0.000000 0.000000 0.000000 77.161041 8.464123 41.511089 -0.758794 1.506534 -12.394939 -60.284431 -5.278393 -10.613120 -15.194964 4.306698 10.668929 10.902822 -8.221103 6.512471 2.967239 6.903375 7.272243 -40.200787 11.999255 12.344994 57.353172 -11.331657 -1.551928 23.238605 4.964623 4.585998 
7.949466 54.350128 -1.343524 3.848624 -7.385305 63.098911 -5.291101 -2.651909 20.559759 0.000000 0.000000 0.000000 -6.511210 6.848197 5.086074 0.000000 0.000000 0.000000 0.000000 0.000000 0.000000 -74.440887 -9.852032 43.120869 8.481054 2.009399 -11.942919 29.189354 15.612571 -31.828617 0.000000 0.000000 0.000000 78.263626 8.176581 43.389557 -0.682536 1.929429 -11.860508 -60.223286 -4.992616 -10.329345 -12.179893 4.789817 11.520930 6.351532 -8.718061 7.455711 1.428244 7.337641 8.035781 -42.468117 12.918990 10.630360 62.235729 -11.878222 -1.896236 22.947155 5.894075 5.083834 
7.238479 54.098206 -0.755701 1.234574 -8.428482 66.043427 -5.974089 -1.057390 19.690859 0.000000 0.000000 0.000000 -6.598831 7.900957 4.910971 0.000000 0.000000 0.000000 0.000000 0.000000 0.000000 -73.799408 -9.602544 43.187256 8.394310 1.715809 -11.534534 29.542624 15.889167 -31.798939 0.000000 0.000000 0.000000 78.757721 8.421855 45.048992 -0.545267 1.883601 -10.805644 -60.227741 -4.850703 -10.202815 -11.189825 6.834568 11.537235 4.273357 -9.033892 7.493645 0.717173 7.365531 8.370320 -43.520157 13.835279 7.626193 63.501060 -12.504340 -1.426717 21.565212 6.325058 5.007274 
6.527475 53.846222 -0.167857 -1.425107 -9.331101 69.045059 -6.685854 0.526946 18.799709 0.000000 0.000000 0.000000 -6.690574 8.963810 4.745764 0.000000 0.000000 0.000000 0.000000 0.000000 0.000000 -73.166672 -9.339879 43.269012 8.314309 1.429277 -11.136369 29.907335 16.166290 -31.758997 0.000000 0.000000 0.000000 79.265114 8.653340 46.712273 -0.406603 1.843490 -9.750628 -60.241653 -4.710499 -10.076319 -10.165786 8.876648 11.589314 2.193198 -9.333659 7.571919 0.030209 7.379001 8.729479 -44.637890 14.707275 4.575927 64.748734 -13.142428 -0.993879 20.200823 6.792940 4.917011 
5.698924 53.135235 0.576719 -4.912882 -10.428036 70.506020 -5.842597 4.195178 16.941492 0.000000 0.000000 0.000000 -7.569924 8.508907 5.974428 0.000000 0.000000 0.000000 0.000000 0.000000 0.000000 -74.217316 -7.947045 43.707848 7.920152 1.674438 -11.236609 32.187145 16.470640 -31.062899 0.000000 0.000000 0.000000 78.891983 10.042268 48.329487 0.056157 0.863081 -10.206269 -60.691601 -5.660164 -10.734100 -10.327484 12.286931 10.993354 2.885590 -9.251012 7.391779 -1.064622 7.339825 8.065521 -42.310005 15.955119 0.831298 61.193161 -13.431334 1.336944 16.704781 5.849537 3.978115 
4.870421 52.424248 1.321265 -8.448826 -11.440407 72.029205 -5.112710 7.894953 15.108223 0.000000 0.000000 0.000000 -8.455146 8.081148 7.201891 0.000000 0.000000 0.000000 0.000000 0.000000 0.000000 -75.248787 -6.544116 44.133621 7.526845 1.920873 -11.336280 34.467812 16.741095 -30.350021 0.000000 0.000000 0.000000 78.560356 11.427031 49.933971 0.514642 -0.116690 -10.653856 -61.134750 -6.616367 -11.385436 -10.527836 15.703675 10.391697 3.590586 -9.142777 7.221803 -2.172283 7.276153 7.385358 -40.055946 17.352274 -2.857377 57.612606 -13.577812 3.673039 13.200033 4.967518 3.005074 
4.377769 51.724461 1.847506 -10.037767 -12.035964 70.985130 -2.319206 11.938669 14.940786 0.000000 0.000000 0.000000 -10.563674 5.032104 10.490723 0.000000 0.000000 0.000000 0.000000 0.000000 0.000000 -77.710686 -5.602989 46.018593 7.696042 1.265844 -11.965432 36.890949 17.375050 -30.086277 0.000000 0.000000 0.000000 76.100098 13.377006 48.951363 1.075640 -0.999160 -9.833059 -62.165440 -7.650762 -12.135780 -13.447525 18.769636 11.690871 10.338283 -8.396172 5.949309 -3.998081 6.937006 5.610335 -36.272602 18.961309 -1.872337 51.406532 -12.286090 5.199488 9.590989 3.835263 3.313837 
3.885230 51.024792 2.373616 -11.621513 -12.659191 69.958984 0.521022 15.981853 14.978103 0.000000 0.000000 0.000000 -12.839180 2.104663 13.886772 0.000000 0.000000 0.000000 0.000000 0.000000 0.000000 -80.144318 -4.566477 47.857891 7.851826 0.606018 -12.604222 39.316456 18.008101 -29.797653 0.000000 0.000000 0.000000 73.588051 15.273751 47.880001 1.650736 -1.873505 -9.013099 -63.173450 -8.684555 -12.863562 -16.355238 21.889734 12.851038 17.022257 -7.500998 4.794700 -5.827132 6.678364 3.836079 -32.437214 20.476284 -0.743633 45.283634 -10.856977 6.548174 5.952760 2.710965 3.552871 
4.092368 51.097572 2.071307 -10.651676 -11.512627 71.154922 0.512983 14.754776 14.452390 0.000000 0.000000 0.000000 -12.403847 1.923446 12.829668 0.000000 0.000000 0.000000 0.000000 0.000000 0.000000 -80.313309 -3.950048 49.348866 7.201620 0.997724 -12.004554 39.478432 17.772791 -28.730869 0.000000 0.000000 0.000000 74.268448 14.112092 48.418808 1.659340 -1.865890 -8.749678 -61.359215 -8.592800 -12.511595 -14.842584 20.622473 12.513161 16.201538 -7.575073 4.930649 -5.542809 5.750571 2.995950 -31.839046 19.175062 0.493098 46.094910 -9.834812 4.898322 6.098116 2.998980 3.496495 
